Coordinates
version=1
nRows=17
nColumns=36
inDegrees=yes

Units are S.I. units (second, meters, Newtons, ...)
If the header above contains a line with 'inDegrees', this indicates whether rotational values are in degrees (yes) or radians (no).

endheader
time	pelvis_tilt	pelvis_list	pelvis_rotation	pelvis_tx	pelvis_ty	pelvis_tz	hip_flexion_r	hip_adduction_r	hip_rotation_r	knee_angle_r	knee_angle_r_beta	ankle_angle_r	subtalar_angle_r	mtp_angle_r	hip_flexion_l	hip_adduction_l	hip_rotation_l	knee_angle_l	knee_angle_l_beta	ankle_angle_l	subtalar_angle_l	mtp_angle_l	lumbar_extension	lumbar_bending	lumbar_rotation	arm_flex_r	arm_add_r	arm_rot_r	elbow_flex_r	pro_sup_r	arm_flex_l	arm_add_l	arm_rot_l	elbow_flex_l	pro_sup_l
      0.00000000	     -5.20085921	     -2.31436625	      2.80470707	      0.41325591	      0.90243738	     -0.17447341	     36.09256449	     -4.22600672	      1.62237147	     13.25058368	      0.23126631	     -1.52870518	    -19.80511037	     -6.27223023	     14.81253836	      4.77719317	     -3.09738410	     18.89404834	      0.32976335	     15.81255687	     -9.62536547	     -6.27223023	     -3.91703096	     -7.15908525	      3.69579664	     43.93269861	     15.67706277	     64.47107445	    111.35775430	    105.58052248	     33.35446390	     10.32444601	     60.00159041	    117.24441040	    107.90781653
      0.01666670	     -6.70926618	     -3.84680538	      3.14513189	      0.41715254	      0.90119422	     -0.17942753	     36.24311393	     -3.79258087	      2.54337825	     10.27133133	      0.17926855	      0.14162318	    -18.71673577	     -6.37170385	     14.98667186	      3.70285526	     -0.97110555	     16.10114646	      0.28101802	     16.48128405	     -9.92497009	     -6.37170385	     -1.82246809	     -4.42495473	      3.62503756	     44.47964563	     15.95771776	     67.88013440	    111.09117333	    104.77638347	     31.02834412	     10.68714209	     63.41552839	    119.16264593	    105.61515746
      0.03333330	     -7.23681115	     -3.95438151	      2.53493641	      0.41812220	      0.90143802	     -0.17842084	     36.09017526	     -3.26974682	      3.12109490	      9.15084845	      0.15971243	      1.14250951	    -18.03532988	     -6.55379370	     15.54095752	      3.33002616	     -1.85782198	     16.19294515	      0.28262021	     17.32076541	    -10.24940809	     -6.55379370	     -1.40046171	     -4.09155151	      4.44890651	     43.56895600	     15.74849897	     69.66439219	    110.68266673	    104.14479710	     29.74812546	     10.64109609	     64.69845415	    119.65785111	    103.51498456
      0.05000000	     -7.23109828	     -4.10701139	      2.53149444	      0.41792403	      0.90095033	     -0.17847939	     35.89839564	     -2.95671168	      2.87590885	      8.89696405	      0.15528132	      1.87765697	    -17.12387479	     -6.69721345	     15.14780646	      3.16023484	     -1.48061287	     15.69787811	      0.27397966	     17.06816079	    -10.82491986	     -6.69721345	     -1.62730032	     -3.62775336	      4.70367626	     43.12567971	     15.71929000	     70.82509761	    109.87806871	    101.03426304	     29.38851017	     10.65291475	     65.80250784	    119.62164141	     99.95377079
      0.06666670	     -7.00979432	     -4.32129507	      2.44343743	      0.41829280	      0.90058787	     -0.17860895	     35.76108195	     -2.51634993	      2.99335413	      9.40481533	      0.16414499	      2.50255057	    -17.05965144	     -6.75796528	     15.17918963	      2.85821038	     -1.48202070	     16.48196869	      0.28766462	     17.14754076	    -11.44879625	     -6.75796528	     -2.06698527	     -2.90383302	      4.76431765	     42.48617083	     15.53602028	     71.04425054	    109.01506083	     99.72827473	     29.06896503	     10.72846960	     66.68634415	    119.75281101	     98.50882341
      0.08333330	     -6.86239849	     -4.28658411	      2.50947733	      0.41753998	      0.90241831	     -0.17873518	     35.66722569	     -2.38422600	      3.09378378	      9.44079024	      0.16477287	      2.57461818	    -17.11307285	     -6.83126699	     15.44402738	      2.89398467	     -1.32609244	     17.21320290	      0.30042707	     16.71013836	    -12.36897963	     -6.83126699	     -2.64111892	     -2.51881481	      4.81932554	     41.99123371	     15.24791975	     70.71736855	    108.39662011	     98.42828936	     28.72606051	     10.63118164	     67.53631827	    120.35049861	     97.04068401
      0.10000000	     -6.94595205	     -4.20700986	      2.89194048	      0.41423503	      0.89833685	     -0.18191627	     36.12989860	     -2.65791861	      3.31450237	      9.40745442	      0.16419105	      2.74685363	    -17.03072117	     -7.07852856	     16.72992434	      3.21533318	     -0.74576723	     18.98202029	      0.33129875	     16.20372299	    -13.74394765	     -7.07852856	     -3.19085720	     -2.17985924	      4.98705319	     42.34139441	     14.79081290	     69.80530632	    108.41489595	     98.18716387	     28.97857053	     11.31945098	     68.01554189	    120.24752636	     95.63906014
      0.11666670	     -7.17730024	     -4.16644478	      3.07636634	      0.41037272	      0.89472734	     -0.18474373	     37.04274146	     -2.78840458	      3.54500555	      9.51205344	      0.16601665	      3.13701315	    -16.71265595	     -7.11196390	     18.49107469	      3.44496147	     -0.57247401	     21.22025306	      0.37036328	     16.37181243	    -14.57235328	     -7.11196390	     -3.67135619	     -1.68679613	      5.00930671	     42.91889403	     14.53992733	     69.15658683	    108.49528945	     97.00969299	     28.96098677	     11.67729314	     68.17760084	    120.78013402	     94.37074624
      0.13333330	     -7.34507987	     -4.17300131	      3.18970307	      0.40669709	      0.89077656	     -0.18285546	     37.95908921	     -2.78548962	      3.57894235	      9.77013168	      0.17052097	      3.50726483	    -16.47671260	     -7.14637209	     20.55531743	      3.52265009	     -0.42746480	     24.16942801	      0.42183610	     16.55625393	    -15.70208770	     -7.14637209	     -4.15398158	     -1.43958456	      5.02013505	     43.44520800	     14.25293283	     68.33378707	    108.90927006	     95.64507675	     29.68521137	     12.16743505	     68.03318994	    120.62566523	     92.87934853
      0.15000000	     -7.56320286	     -4.14188379	      2.92551816	      0.40249569	      0.88926496	     -0.18554953	     39.04754720	     -2.72306418	      3.22232756	     10.16169092	      0.17735496	      3.48045559	    -16.22453155	     -7.18058279	     22.35358439	      3.62361414	     -0.66645013	     26.65096429	      0.46514708	     16.76661689	    -16.59538603	     -7.18058279	     -4.65528649	     -1.12904798	      5.05982500	     43.87952260	     14.16474224	     67.99962310	    109.22407486	     94.36247180	     30.40103770	     12.31935881	     66.75857247	    120.24018670	     91.32399852
      0.16666670	     -7.81360778	     -4.18929214	      2.65267826	      0.40375482	      0.88395362	     -0.18536466	     40.09099387	     -2.42030323	      3.18398350	     10.49823732	      0.18322881	      3.76366118	    -15.94116938	     -7.18918061	     23.98153847	      3.60755176	     -0.79122899	     28.93702638	      0.50504639	     17.28739485	    -17.53298948	     -7.18918061	     -4.90011550	     -0.86638754	      5.18514947	     43.97892812	     13.90871106	     67.38771022	    109.72026995	     94.67894405	     30.66651246	     12.08812949	     64.66016870	    119.60893532	     91.14615943
      0.18333330	     -8.26211873	     -4.33758957	      2.40306775	      0.40862270	      0.87960892	     -0.18200279	     41.09002431	     -2.04477028	      3.06855794	     10.83769088	      0.18915339	      4.01647506	    -15.93226939	     -7.19727468	     25.47209584	      3.27645836	     -1.05723144	     30.84786593	      0.53839683	     17.54877816	    -18.10731467	     -7.19727468	     -5.08867583	     -0.57164274	      5.40893359	     44.34436031	     14.13863790	     67.63723364	    109.94953955	     94.96847243	     30.49041135	     11.67041447	     63.52010308	    119.42873790	     90.94818456
      0.20000000	     -8.97660308	     -4.51399340	      2.13758393	      0.40525289	      0.87359413	     -0.18487971	     42.48983864	     -1.73291713	      2.94254425	     10.97428459	      0.19153740	      4.33218712	    -15.55383098	     -7.20539818	     27.42435892	      2.97844242	     -1.29448965	     33.09480189	      0.57761326	     18.01356531	    -18.44932999	     -7.20539818	     -5.23425393	     -0.17320140	      5.52960003	     44.87675002	     14.52152816	     68.40975916	    110.24912317	     95.22065701	     29.96866546	     11.72710587	     62.65958400	    119.59982914	     90.75023564
      0.21666670	     -9.72803737	     -4.72370398	      1.77667958	      0.40125136	      0.86866198	     -0.18761237	     43.94023488	     -1.40059375	      2.74776051	     10.89365507	      0.19013015	      4.20002890	    -15.06365042	     -7.22375758	     29.24753641	      2.73937360	     -1.50395597	     34.90936840	      0.60928342	     18.39760785	    -18.79134433	     -7.22375758	     -5.48173348	      0.40942671	      6.03923559	     45.51874779	     14.75564161	     69.17552274	    110.72055524	     94.58007464	     29.57339791	     11.86584526	     61.88443990	    119.76842085	     89.73214366
      0.23333330	    -10.52807996	     -4.85175092	      1.52363679	      0.39765449	      0.86525435	     -0.19063555	     45.38343923	     -1.31368579	      2.58882696	     10.94011706	      0.19094106	      4.11715750	    -14.29668098	     -7.23984451	     31.08034768	      2.73656441	     -1.62417306	     36.46766251	      0.63648078	     18.78444956	    -18.97647136	     -7.23984451	     -5.86022520	      0.88434631	      6.25542682	     46.06241479	     14.89372554	     69.93423736	    111.10585632	     94.03352161	     29.19692134	     12.36820342	     61.32039660	    119.64594301	     88.89196671
      0.25000000	    -11.16540339	     -4.93830519	      1.26721160	      0.39822125	      0.86060707	     -0.19027764	     46.57457157	     -1.19188906	      2.16459286	     10.77726222	      0.18809871	      4.06856382	    -13.31450045	     -7.25051685	     32.51617831	      2.64585117	     -1.90994959	     37.85011104	      0.66060906	     19.53692918	    -18.79876886	     -7.25051685	     -6.22294009	      1.19697185	      6.32335934	     46.45982632	     15.21728890	     70.59828134	    111.40740877	     94.33349690	     28.75732346	     12.80920344	     61.00200338	    119.68229833	     88.90354383
      0.26666670	    -11.59509444	     -4.71694141	      1.04729636	      0.39501265	      0.85910530	     -0.19317933	     47.45483929	     -1.39699367	      2.18941584	     10.34692479	      0.18058791	      3.76690163	    -12.26461716	     -7.26201700	     33.43194081	      3.01404147	     -2.14811393	     38.50629930	      0.67206171	     19.89719839	    -18.84046105	     -7.26201700	     -6.87740004	      1.22084810	      6.46179643	     46.79755192	     15.36531098	     71.33796992	    111.57007201	     93.74885950	     28.29152612	     12.96706617	     60.69273470	    119.19864980	     88.23138406
